<?xml version="1.0" standalone="no"?>
<!DOCTYPE svg PUBLIC "-//W3C//DTD SVG 20010904//EN"
 "http://www.w3.org/TR/2001/REC-SVG-20010904/DTD/svg10.dtd">
<svg version="1.0" xmlns="http://www.w3.org/2000/svg"
 width="512.000000pt" height="512.000000pt" viewBox="0 0 512.000000 512.000000"
 preserveAspectRatio="xMidYMid meet">
<metadata>
Created by potrace 1.14, written by Peter Selinger 2001-2017
</metadata>
<g transform="translate(0.000000,512.000000) scale(0.100000,-0.100000)"
fill="#000000" stroke="none">
<path d="M2447 4990 l-49 -5 20 -25 c34 -44 81 -146 108 -237 32 -109 40 -300
18 -409 -17 -82 -53 -181 -88 -246 l-25 -48 57 -42 c126 -93 278 -282 342
-423 49 -109 99 -292 109 -395 4 -40 7 -1427 3 -1438 -2 -7 -89 -69 -193 -139
l-189 -126 2 -665 3 -665 83 1 c45 0 101 1 125 1 l42 1 -1 588 c0 323 2 592 4
599 2 6 89 67 193 135 l190 123 -4 825 c-3 812 -3 827 -25 930 -37 171 -104
343 -174 447 -15 23 -28 44 -28 48 0 11 -117 159 -169 214 -31 32 -50 60 -46
68 12 34 47 182 52 223 9 81 6 254 -6 330 -14 85 -30 142 -74 253 -28 73 -32
77 -61 78 -143 4 -177 3 -219 -1z"/>
<path d="M3152 4992 c-37 -3 -42 -6 -36 -20 18 -42 55 -196 68 -282 18 -116
11 -458 -9 -478 -2 -3 14 -30 37 -61 98 -135 210 -333 233 -411 4 -14 11 -29
15 -35 7 -10 69 -212 76 -250 2 -11 6 -31 9 -45 37 -168 38 -209 39 -1151 l1
-886 -192 -129 -193 -128 0 -496 0 -495 100 2 c55 1 112 2 128 2 l27 1 0 425
0 426 193 127 193 127 -4 1010 c-2 556 -6 1021 -9 1035 -4 14 -10 52 -14 85
-4 33 -8 62 -9 65 -1 3 -5 23 -9 45 -17 82 -46 180 -96 320 -33 90 -134 288
-202 392 -44 69 -58 98 -53 113 14 45 7 351 -11 445 -17 93 -47 224 -54 235
-7 12 -132 19 -228 12z"/>
<path d="M3780 4980 c0 -8 7 -46 15 -85 9 -38 18 -94 21 -124 3 -30 7 -58 10
-63 3 -4 7 -82 10 -174 l5 -167 38 -66 c46 -77 137 -262 168 -341 73 -181 140
-445 158 -620 3 -30 8 -80 11 -110 4 -30 7 -538 8 -1128 l1 -1073 -65 -42
c-36 -23 -71 -47 -78 -54 -6 -6 -21 -15 -32 -18 -11 -3 -20 -10 -20 -14 0 -5
-13 -14 -30 -21 -16 -7 -30 -16 -30 -20 0 -4 -13 -13 -30 -20 -16 -7 -30 -15
-30 -19 0 -4 -16 -15 -35 -25 l-35 -19 0 -324 c0 -301 1 -323 18 -324 22 -1
190 -1 217 0 20 1 20 7 20 254 l0 252 193 130 193 129 -4 1191 c-3 654 -7
1213 -11 1240 -52 402 -169 765 -342 1060 -24 42 -28 59 -30 144 -3 113 -10
217 -18 251 -3 14 -8 43 -12 65 -3 22 -7 45 -8 50 -2 6 -6 30 -10 55 l-8 45
-129 0 c-108 0 -129 -2 -129 -15z"/>
<path d="M1502 4965 c-133 -48 -237 -139 -296 -259 -167 -341 79 -737 459
-736 138 0 256 50 356 149 99 99 151 216 152 344 0 108 -15 172 -62 264 -53
105 -195 216 -316 248 -84 22 -217 17 -293 -10z"/>
<path d="M1445 3833 c-209 -39 -368 -122 -476 -248 -19 -22 -37 -42 -40 -45
-3 -3 -19 -25 -36 -50 -59 -89 -98 -194 -118 -319 -9 -56 -10 -1234 -2 -1248
6 -9 224 -159 252 -173 53 -27 125 -86 126 -104 0 -12 1 -358 2 -770 l2 -748
485 0 c267 0 496 1 510 1 l25 1 0 768 0 767 193 128 193 127 -3 638 -4 637
-28 83 c-56 170 -142 292 -287 407 -86 68 -224 126 -344 144 -57 9 -408 12
-450 4z"/>
</g>
</svg>
